<?xml version="1.0" standalone="no"?>
<!DOCTYPE svg PUBLIC "-//W3C//DTD SVG 20010904//EN"
 "http://www.w3.org/TR/2001/REC-SVG-20010904/DTD/svg10.dtd">
<svg version="1.0" xmlns="http://www.w3.org/2000/svg"
 width="595.000000pt" height="595.000000pt" viewBox="0 0 595.000000 595.000000"
 preserveAspectRatio="xMidYMid meet">
<metadata>
Created by potrace 1.11, written by Peter Selinger 2001-2013
</metadata>
<g transform="translate(0.000000,595.000000) scale(0.100000,-0.100000)"
fill="#000000" stroke="none">
<path d="M0 2970 l0 -2970 2975 0 2975 0 0 2970 0 2970 -2975 0 -2975 0 0
-2970z m3765 1602 c328 -70 578 -198 786 -403 441 -437 595 -1146 384 -1775
-184 -550 -586 -905 -1161 -1026 -107 -22 -125 -22 -821 -26 l-713 -3 0 192 0
192 -22 -20 c-39 -36 -162 -111 -259 -158 -245 -119 -639 -205 -946 -205 l-93
0 0 234 0 233 46 7 c26 3 73 6 105 6 32 0 109 7 171 16 575 78 929 361 987
787 7 49 11 344 11 793 l0 714 -445 0 -445 0 0 235 0 236 1153 -3 1152 -3 110
-23z"/>
<path d="M2720 2970 l0 -1160 383 0 c413 0 511 7 657 46 566 150 896 742 769
1379 -47 233 -160 439 -330 600 -174 165 -385 257 -650 285 -56 5 -265 10
-465 10 l-364 0 0 -1160z"/>
</g>
</svg>
