<svg xmlns="http://www.w3.org/2000/svg"><symbol id="github" viewBox="0 0 16 16"><path d="M8 0a8 8 0 0 0-8 8 8 8 0 0 0 5.47 7.59c.4.075.547-.172.547-.385 0-.19-.007-.693-.01-1.36-2.226.483-2.695-1.073-2.695-1.073-.364-.924-.89-1.17-.89-1.17-.725-.496.056-.486.056-.486.803.056 1.225.824 1.225.824.714 1.223 1.873.87 2.33.665.072-.517.278-.87.507-1.07-1.777-.2-3.644-.888-3.644-3.953 0-.873.31-1.587.823-2.147-.09-.202-.36-1.015.07-2.117 0 0 .67-.215 2.2.82a7.67 7.67 0 0 1 2-.27 7.67 7.67 0 0 1 2 .27c1.52-1.035 2.19-.82 2.19-.82.43 1.102.16 1.915.08 2.117a3.1 3.1 0 0 1 .82 2.147c0 3.073-1.87 3.75-3.65 3.947.28.24.54.73.54 1.48 0 1.07-.01 1.93-.01 2.19 0 .21.14.46.55.38A7.972 7.972 0 0 0 16 8a8 8 0 0 0-8-8"/></symbol><symbol id="microsoftoutlook" viewBox="0 0 16 16"><path d="M16 4.925v6.985a.532.532 0 0 1-.546.538H9.757v-4.64l1.066.82c.068.056.152.084.252.084s.186-.028.26-.085L16 4.925zM9.757 3.578h5.697c.142 0 .263.042.363.128.1.085.155.2.166.34L11.07 7.963 9.757 6.93V3.578zM8.937.576v14.848L0 13.88V2.163L8.938.576zm-2.7 7.454c-.013-.756-.208-1.382-.586-1.876-.37-.494-.85-.754-1.42-.777-.55.023-1.02.282-1.4.777-.38.494-.57 1.12-.58 1.876.01.745.21 1.364.59 1.86.38.494.85.755 1.4.784.57-.023 1.05-.283 1.43-.78.38-.498.58-1.12.59-1.864zm-2.08-1.655c.287.012.53.17.722.478.19.307.29.696.29 1.168 0 .48-.1.87-.29 1.18-.2.31-.44.47-.73.47s-.53-.15-.73-.46c-.2-.31-.29-.7-.29-1.17s.09-.86.29-1.16c.19-.3.43-.46.72-.48z"/></symbol><symbol id="linkedin" viewBox="0 0 16 16"><path d="M13.632 13.635h-2.37V9.922c0-.886-.018-2.025-1.234-2.025-1.235 0-1.424.964-1.424 1.96v3.778h-2.37V6H8.51v1.04h.03c.318-.6 1.092-1.233 2.247-1.233 2.4 0 2.845 1.58 2.845 3.637v4.188zM3.558 4.955a1.376 1.376 0 1 1-.001-2.751 1.376 1.376 0 0 1 .001 2.751zm1.188 8.68H2.37V6h2.376v7.635zM14.816 0H1.18C.528 0 0 .516 0 1.153v13.694C0 15.484.528 16 1.18 16h13.635c.652 0 1.185-.516 1.185-1.153V1.153C16 .516 15.467 0 14.815 0z"/></symbol><symbol id="twitter" viewBox="0 0 16 16"><path d="M16 3.038a6.62 6.62 0 0 1-1.885.517 3.299 3.299 0 0 0 1.443-1.816c-.634.37-1.337.64-2.085.79a3.282 3.282 0 0 0-5.593 2.99 9.307 9.307 0 0 1-6.766-3.42A3.222 3.222 0 0 0 .67 3.75c0 1.14.58 2.143 1.46 2.732a3.278 3.278 0 0 1-1.487-.41v.04c0 1.59 1.13 2.918 2.633 3.22a3.336 3.336 0 0 1-1.475.056 3.29 3.29 0 0 0 3.07 2.28 6.578 6.578 0 0 1-4.85 1.359 9.332 9.332 0 0 0 5.04 1.474c6.04 0 9.34-5 9.34-9.33 0-.14 0-.28-.01-.42a6.63 6.63 0 0 0 1.64-1.7z"/></symbol><symbol id="youtube" viewBox="0 0 16 16"><path d="M15.8 4.8s-.2-1.1-.6-1.6c-.6-.6-1.3-.6-1.6-.7-2.2-.2-5.6-.2-5.6-.2s-4.2 0-5.4.2c-.4 0-1.2 0-1.8.7-.5.5-.6 1.6-.6 1.6S0 6 0 7.3v1.3c0 1.3.2 2.6.2 2.6s.2 1.1.6 1.6c.6.6 1.4.6 1.8.7 1.2.1 5.4.1 5.4.1s3.4 0 5.6-.2c.3 0 1 0 1.6-.7.5-.5.6-1.6.6-1.6s.2-1.2.2-2.5V7.3c0-1.3-.2-2.5-.2-2.5zm-9.5 5.3V5.6l4.3 2.3-4.3 2.2z"/></symbol><symbol id="behance" viewBox="0 0 16 16"><path d="M4.64 2.987c.47 0 .896.04 1.284.125.386.082.715.218.994.406.274.187.49.436.642.75.15.31.226.697.226 1.155 0 .495-.113.91-.338 1.24-.226.33-.56.602-1.004.812.606.174 1.054.48 1.352.916.3.44.445.97.445 1.58 0 .5-.09.93-.28 1.29-.19.37-.45.67-.78.9-.32.23-.7.4-1.12.51-.41.11-.84.17-1.28.17H0V2.99h4.64zm6.69 8.133c.293.286.717.43 1.266.43.394 0 .736-.1 1.022-.3.284-.197.456-.41.523-.63h1.73c-.27.857-.7 1.47-1.27 1.838-.57.37-1.26.555-2.06.555-.56 0-1.06-.09-1.52-.27-.45-.18-.83-.435-1.15-.766a3.471 3.471 0 0 1-.72-1.188c-.17-.46-.25-.97-.25-1.52 0-.54.09-1.03.27-1.49.18-.47.43-.86.75-1.2.33-.34.71-.6 1.16-.8.45-.2.94-.29 1.49-.29.61 0 1.13.11 1.59.35.45.23.82.55 1.11.94.3.39.5.84.63 1.35.13.5.17 1.03.14 1.59H10.9c0 .56.19 1.09.48 1.38zm-6.85.033c.213 0 .416-.02.607-.062.194-.04.366-.11.51-.2a.964.964 0 0 0 .353-.39c.087-.16.13-.38.13-.64 0-.5-.143-.86-.427-1.08-.285-.21-.664-.32-1.13-.32H2.167v2.71H4.48zm9.1-3.777c-.234-.258-.628-.397-1.108-.397-.313 0-.572.05-.78.16a1.432 1.432 0 0 0-.757.89c-.05.17-.08.33-.09.47h3.185c-.047-.5-.217-.87-.45-1.13zm-9.22-.413c.384 0 .702-.09.953-.276.25-.182.37-.482.37-.895 0-.23-.04-.418-.12-.565a.9.9 0 0 0-.334-.342c-.14-.084-.3-.142-.48-.173-.18-.035-.37-.05-.56-.05H2.16v2.3h2.2zm6.085-3.316h3.99v.972h-3.99v-.98z"/></symbol><symbol id="codepen" viewBox="0 0 16 16"><path d="M15.988 5.443c-.004-.02-.007-.04-.012-.058l-.01-.033c-.006-.017-.012-.034-.02-.05-.003-.012-.01-.023-.014-.034l-.023-.045-.02-.032-.03-.04-.03-.03-.04-.03-.03-.02-.04-.03-.03-.02-.01-.01L8.38.12a.683.683 0 0 0-.76 0L.302 4.99.292 5l-.03.023-.04.032-.025.027-.034.037-.024.03-.03.04c-.01.01-.02.02-.02.03l-.03.04-.01.04c-.01.01-.01.03-.02.05l-.01.03c-.01.02-.01.04-.01.06v.03C0 5.5 0 5.53 0 5.56v4.875c0 .03.002.06.006.09l.007.03c.003.02.006.04.013.058l.01.033c.006.018.01.035.018.05l.015.033c0 .01.01.03.02.04l.02.03c.01.01.02.03.03.04l.02.03.03.03c.01.01.01.02.02.02l.04.03.03.02.01.01 7.31 4.88c.11.08.25.11.38.11s.26-.04.38-.12L15.68 11l.01-.01.03-.022.04-.03.03-.026.035-.037.024-.03.03-.04.02-.032.02-.046.01-.036.02-.05.01-.03.02-.05v-5c0-.03 0-.06-.01-.09l-.01-.03zM8 9.626L5.568 8 8 6.374 10.432 8 8 9.626zM7.312 5.18l-2.98 1.993-2.406-1.61 5.386-3.59V5.18zM3.095 8l-1.72 1.15v-2.3L3.095 8zm1.237.828l2.98 1.993v3.21l-5.386-3.59 2.406-1.61zm4.355 1.993l2.98-1.99 2.407 1.61-5.387 3.59v-3.2zM12.905 8l1.72-1.15v2.3L12.905 8zm-1.237-.827L8.688 5.18V1.97l5.386 3.59-2.406 1.61z"/></symbol></svg>